<mxfile host="app.diagrams.net" modified="2022-10-19T02:12:29.418Z" agent="5.0 (Windows)" etag="M9zZPJ7izmSnUS_TMG3J" version="20.4.1" type="github">
  <diagram id="kQm1WyOccjyHnlNSDJr9" name="第 1 页">
    <mxGraphModel dx="1422" dy="761" grid="1" gridSize="10" guides="1" tooltips="1" connect="1" arrows="1" fold="1" page="1" pageScale="1" pageWidth="827" pageHeight="1169" math="0" shadow="0">
      <root>
        <mxCell id="0" />
        <mxCell id="1" parent="0" />
        <mxCell id="yK7P3pugAWHu_ZcFfTPJ-107" value="" style="rounded=0;whiteSpace=wrap;html=1;fillColor=#ffe6cc;strokeColor=none;fontSize=8;" vertex="1" parent="1">
          <mxGeometry x="1030" y="416" width="130" height="62" as="geometry" />
        </mxCell>
        <mxCell id="yK7P3pugAWHu_ZcFfTPJ-108" value="" style="rounded=0;whiteSpace=wrap;html=1;fillColor=#d5e8d4;strokeColor=none;fontSize=8;" vertex="1" parent="1">
          <mxGeometry x="190" y="120" width="520" height="90" as="geometry" />
        </mxCell>
        <mxCell id="yK7P3pugAWHu_ZcFfTPJ-109" value="" style="rounded=0;whiteSpace=wrap;html=1;fillColor=#f5f5f5;strokeColor=none;fontSize=8;fontColor=#333333;" vertex="1" parent="1">
          <mxGeometry x="190" y="230" width="800" height="580" as="geometry" />
        </mxCell>
        <mxCell id="yK7P3pugAWHu_ZcFfTPJ-110" value="" style="rounded=0;whiteSpace=wrap;html=1;dashed=1;dashPattern=1 2;fontSize=8;fillColor=#e1d5e7;strokeColor=none;" vertex="1" parent="1">
          <mxGeometry x="200" y="425" width="580" height="375" as="geometry" />
        </mxCell>
        <mxCell id="yK7P3pugAWHu_ZcFfTPJ-111" value="" style="rounded=0;whiteSpace=wrap;html=1;dashed=1;dashPattern=1 2;fontSize=8;" vertex="1" parent="1">
          <mxGeometry x="230" y="450" width="520" height="250" as="geometry" />
        </mxCell>
        <mxCell id="yK7P3pugAWHu_ZcFfTPJ-112" value="" style="rounded=0;whiteSpace=wrap;html=1;fillColor=#d5e8d4;strokeColor=none;fontSize=8;" vertex="1" parent="1">
          <mxGeometry x="290" y="253" width="380" height="60" as="geometry" />
        </mxCell>
        <mxCell id="yK7P3pugAWHu_ZcFfTPJ-113" value="" style="rounded=0;whiteSpace=wrap;html=1;fillColor=#ffe6cc;strokeColor=none;fontSize=8;" vertex="1" parent="1">
          <mxGeometry x="210" y="718" width="455" height="61" as="geometry" />
        </mxCell>
        <mxCell id="yK7P3pugAWHu_ZcFfTPJ-114" value="" style="endArrow=none;html=1;rounded=0;entryX=0.5;entryY=0;entryDx=0;entryDy=0;exitX=0.5;exitY=1;exitDx=0;exitDy=0;fontSize=8;" edge="1" parent="1" source="yK7P3pugAWHu_ZcFfTPJ-123" target="yK7P3pugAWHu_ZcFfTPJ-119">
          <mxGeometry width="50" height="50" relative="1" as="geometry">
            <mxPoint x="-10" y="550" as="sourcePoint" />
            <mxPoint x="90" y="548.93" as="targetPoint" />
          </mxGeometry>
        </mxCell>
        <mxCell id="yK7P3pugAWHu_ZcFfTPJ-115" value="&lt;font style=&quot;font-size: 8px;&quot;&gt;广汽TKE&lt;/font&gt;" style="rounded=0;whiteSpace=wrap;html=1;fillColor=none;strokeColor=none;fontSize=8;" vertex="1" parent="1">
          <mxGeometry x="230" y="449" width="66" height="20" as="geometry" />
        </mxCell>
        <mxCell id="yK7P3pugAWHu_ZcFfTPJ-116" value="" style="rounded=0;whiteSpace=wrap;html=1;fillColor=#d5e8d4;strokeColor=none;fontSize=8;" vertex="1" parent="1">
          <mxGeometry x="250" y="470" width="480" height="160" as="geometry" />
        </mxCell>
        <mxCell id="yK7P3pugAWHu_ZcFfTPJ-117" value="&lt;b&gt;&lt;font color=&quot;#ff0000&quot;&gt;1、&lt;/font&gt;&lt;/b&gt;业务空间" style="rounded=0;whiteSpace=wrap;html=1;fillColor=none;strokeColor=none;fontSize=8;" vertex="1" parent="1">
          <mxGeometry x="250" y="472" width="70" height="20" as="geometry" />
        </mxCell>
        <mxCell id="yK7P3pugAWHu_ZcFfTPJ-118" value="" style="endArrow=none;html=1;rounded=0;fontSize=8;entryX=0.492;entryY=-0.009;entryDx=0;entryDy=0;exitX=0.5;exitY=1;exitDx=0;exitDy=0;entryPerimeter=0;" edge="1" parent="1" source="yK7P3pugAWHu_ZcFfTPJ-119" target="yK7P3pugAWHu_ZcFfTPJ-111">
          <mxGeometry width="50" height="50" relative="1" as="geometry">
            <mxPoint x="120" y="547.8299999999999" as="sourcePoint" />
            <mxPoint x="214" y="548.05" as="targetPoint" />
          </mxGeometry>
        </mxCell>
        <mxCell id="yK7P3pugAWHu_ZcFfTPJ-119" value="&lt;b&gt;&lt;font color=&quot;#ff0000&quot;&gt;9、&lt;/font&gt;&lt;/b&gt;内网负载均衡" style="rounded=0;whiteSpace=wrap;html=1;fillColor=#dae8fc;strokeColor=#6c8ebf;fontSize=8;" vertex="1" parent="1">
          <mxGeometry x="436" y="396" width="100" height="20" as="geometry" />
        </mxCell>
        <mxCell id="yK7P3pugAWHu_ZcFfTPJ-120" value="外部" style="rounded=0;whiteSpace=wrap;html=1;strokeColor=none;fillColor=none;fontSize=8;" vertex="1" parent="1">
          <mxGeometry x="1017" y="418" width="58" height="20" as="geometry" />
        </mxCell>
        <mxCell id="yK7P3pugAWHu_ZcFfTPJ-121" value="" style="endArrow=none;html=1;rounded=0;entryX=0;entryY=0.5;entryDx=0;entryDy=0;fontSize=8;exitX=0.5;exitY=0;exitDx=0;exitDy=0;" edge="1" parent="1" source="yK7P3pugAWHu_ZcFfTPJ-189" target="yK7P3pugAWHu_ZcFfTPJ-206">
          <mxGeometry width="50" height="50" relative="1" as="geometry">
            <mxPoint x="810.0039999999999" y="591.25" as="sourcePoint" />
            <mxPoint x="814.8599999999999" y="590" as="targetPoint" />
          </mxGeometry>
        </mxCell>
        <mxCell id="yK7P3pugAWHu_ZcFfTPJ-122" value="" style="endArrow=none;html=1;rounded=0;fontSize=8;entryX=0;entryY=0.5;entryDx=0;entryDy=0;startArrow=none;" edge="1" parent="1" source="yK7P3pugAWHu_ZcFfTPJ-206" target="yK7P3pugAWHu_ZcFfTPJ-107">
          <mxGeometry width="50" height="50" relative="1" as="geometry">
            <mxPoint x="940" y="450" as="sourcePoint" />
            <mxPoint x="1057" y="561.5" as="targetPoint" />
          </mxGeometry>
        </mxCell>
        <mxCell id="yK7P3pugAWHu_ZcFfTPJ-123" value="&lt;b&gt;&lt;font color=&quot;#ff0000&quot;&gt;10、&lt;/font&gt;&lt;/b&gt;NAT网关" style="rounded=0;whiteSpace=wrap;html=1;fillColor=#dae8fc;strokeColor=#6c8ebf;fontSize=8;" vertex="1" parent="1">
          <mxGeometry x="446" y="356" width="80" height="20" as="geometry" />
        </mxCell>
        <mxCell id="yK7P3pugAWHu_ZcFfTPJ-124" value="" style="endArrow=none;html=1;rounded=0;entryX=0.5;entryY=0;entryDx=0;entryDy=0;exitX=0.5;exitY=1;exitDx=0;exitDy=0;fontSize=8;" edge="1" parent="1" target="yK7P3pugAWHu_ZcFfTPJ-123">
          <mxGeometry width="50" height="50" relative="1" as="geometry">
            <mxPoint x="424" y="293" as="sourcePoint" />
            <mxPoint x="-20" y="574.7099999999998" as="targetPoint" />
          </mxGeometry>
        </mxCell>
        <mxCell id="yK7P3pugAWHu_ZcFfTPJ-125" value="DNAT" style="edgeLabel;align=center;verticalAlign=middle;resizable=0;points=[];fontSize=20;fontFamily=Architects Daughter;labelBackgroundColor=default;html=1;fontColor=none;noLabel=1;" vertex="1" connectable="0" parent="yK7P3pugAWHu_ZcFfTPJ-124">
          <mxGeometry x="0.1379" y="1" relative="1" as="geometry">
            <mxPoint as="offset" />
          </mxGeometry>
        </mxCell>
        <mxCell id="yK7P3pugAWHu_ZcFfTPJ-126" value="&lt;b&gt;&lt;font color=&quot;#ff0000&quot;&gt;6、&lt;/font&gt;&lt;/b&gt;公网IP(出网)" style="rounded=0;whiteSpace=wrap;html=1;fillColor=#dae8fc;strokeColor=#6c8ebf;fontSize=8;" vertex="1" parent="1">
          <mxGeometry x="500" y="273" width="90" height="20" as="geometry" />
        </mxCell>
        <mxCell id="yK7P3pugAWHu_ZcFfTPJ-127" value="" style="endArrow=none;html=1;rounded=0;exitX=0.5;exitY=1;exitDx=0;exitDy=0;entryX=0.5;entryY=0;entryDx=0;entryDy=0;fontSize=8;" edge="1" parent="1" source="yK7P3pugAWHu_ZcFfTPJ-126" target="yK7P3pugAWHu_ZcFfTPJ-123">
          <mxGeometry width="50" height="50" relative="1" as="geometry">
            <mxPoint x="-90" y="605" as="sourcePoint" />
            <mxPoint x="125" y="460" as="targetPoint" />
          </mxGeometry>
        </mxCell>
        <mxCell id="yK7P3pugAWHu_ZcFfTPJ-128" value="" style="endArrow=none;html=1;rounded=0;entryX=0.443;entryY=0;entryDx=0;entryDy=0;entryPerimeter=0;fontSize=8;exitX=0.671;exitY=1.011;exitDx=0;exitDy=0;exitPerimeter=0;" edge="1" parent="1" source="yK7P3pugAWHu_ZcFfTPJ-108" target="yK7P3pugAWHu_ZcFfTPJ-126">
          <mxGeometry width="50" height="50" relative="1" as="geometry">
            <mxPoint x="537" y="210" as="sourcePoint" />
            <mxPoint x="193" y="361" as="targetPoint" />
          </mxGeometry>
        </mxCell>
        <mxCell id="yK7P3pugAWHu_ZcFfTPJ-129" value="" style="endArrow=none;html=1;rounded=0;entryX=0.5;entryY=0;entryDx=0;entryDy=0;fontSize=8;exitX=0.452;exitY=1.042;exitDx=0;exitDy=0;exitPerimeter=0;" edge="1" parent="1" source="yK7P3pugAWHu_ZcFfTPJ-108">
          <mxGeometry width="50" height="50" relative="1" as="geometry">
            <mxPoint x="420" y="210" as="sourcePoint" />
            <mxPoint x="424" y="273" as="targetPoint" />
          </mxGeometry>
        </mxCell>
        <mxCell id="yK7P3pugAWHu_ZcFfTPJ-130" value="" style="endArrow=none;html=1;rounded=0;fontSize=8;exitX=0.381;exitY=1.01;exitDx=0;exitDy=0;exitPerimeter=0;entryX=0.481;entryY=-0.002;entryDx=0;entryDy=0;entryPerimeter=0;" edge="1" parent="1" source="yK7P3pugAWHu_ZcFfTPJ-111" target="yK7P3pugAWHu_ZcFfTPJ-113">
          <mxGeometry width="50" height="50" relative="1" as="geometry">
            <mxPoint x="480" y="690" as="sourcePoint" />
            <mxPoint x="430" y="720" as="targetPoint" />
          </mxGeometry>
        </mxCell>
        <mxCell id="yK7P3pugAWHu_ZcFfTPJ-131" value="存储" style="rounded=0;whiteSpace=wrap;html=1;strokeColor=none;fillColor=none;fontSize=8;" vertex="1" parent="1">
          <mxGeometry x="216" y="718" width="66" height="20" as="geometry" />
        </mxCell>
        <mxCell id="yK7P3pugAWHu_ZcFfTPJ-132" value="&lt;b&gt;&lt;font color=&quot;#ff0000&quot;&gt;8、&lt;/font&gt;&lt;/b&gt;Elasticsearch Service" style="rounded=0;whiteSpace=wrap;html=1;fillColor=#dae8fc;strokeColor=#6c8ebf;fontSize=8;" vertex="1" parent="1">
          <mxGeometry x="460" y="743" width="139" height="20" as="geometry" />
        </mxCell>
        <mxCell id="yK7P3pugAWHu_ZcFfTPJ-133" value="&lt;b&gt;&lt;font color=&quot;#ff0000&quot;&gt;2、&lt;/font&gt;&lt;/b&gt;TDSQL MySQL版" style="rounded=0;whiteSpace=wrap;html=1;fillColor=#dae8fc;strokeColor=#6c8ebf;fontSize=8;" vertex="1" parent="1">
          <mxGeometry x="214" y="743" width="120" height="20" as="geometry" />
        </mxCell>
        <mxCell id="yK7P3pugAWHu_ZcFfTPJ-134" value="&lt;b&gt;&lt;font color=&quot;#ff0000&quot;&gt;3、&lt;/font&gt;&lt;/b&gt;云数据库Tendis" style="rounded=0;whiteSpace=wrap;html=1;fillColor=#dae8fc;strokeColor=#6c8ebf;fontSize=8;" vertex="1" parent="1">
          <mxGeometry x="341" y="743" width="113" height="20" as="geometry" />
        </mxCell>
        <mxCell id="yK7P3pugAWHu_ZcFfTPJ-135" value="" style="group" vertex="1" connectable="0" parent="1">
          <mxGeometry x="259" y="498" width="487" height="177" as="geometry" />
        </mxCell>
        <mxCell id="yK7P3pugAWHu_ZcFfTPJ-136" value="API网关服务" style="rounded=0;whiteSpace=wrap;html=1;fillColor=#dae8fc;strokeColor=#6c8ebf;fontSize=8;verticalAlign=middle;flipH=1;" vertex="1" parent="yK7P3pugAWHu_ZcFfTPJ-135">
          <mxGeometry y="-5" width="84.81481481481481" height="27.36842105263158" as="geometry" />
        </mxCell>
        <mxCell id="yK7P3pugAWHu_ZcFfTPJ-137" value="API认证服务" style="rounded=0;whiteSpace=wrap;html=1;fillColor=#dae8fc;strokeColor=#6c8ebf;fontSize=8;verticalAlign=middle;flipH=1;" vertex="1" parent="yK7P3pugAWHu_ZcFfTPJ-135">
          <mxGeometry y="44.315789473684205" width="84.81481481481481" height="27.36842105263158" as="geometry" />
        </mxCell>
        <mxCell id="yK7P3pugAWHu_ZcFfTPJ-138" value="生产服务" style="rounded=0;whiteSpace=wrap;html=1;fillColor=#dae8fc;strokeColor=#6c8ebf;fontSize=8;verticalAlign=middle;" vertex="1" parent="yK7P3pugAWHu_ZcFfTPJ-135">
          <mxGeometry x="186.5925925925926" y="-5" width="84.81481481481481" height="27.36842105263158" as="geometry" />
        </mxCell>
        <mxCell id="yK7P3pugAWHu_ZcFfTPJ-139" value="帐号服务" style="rounded=0;whiteSpace=wrap;html=1;fillColor=#dae8fc;strokeColor=#6c8ebf;fontSize=8;verticalAlign=middle;" vertex="1" parent="yK7P3pugAWHu_ZcFfTPJ-135">
          <mxGeometry x="279.8888888888889" y="-5" width="84.81481481481481" height="27.36842105263158" as="geometry" />
        </mxCell>
        <mxCell id="yK7P3pugAWHu_ZcFfTPJ-140" value="tspAgent" style="rounded=0;whiteSpace=wrap;html=1;fillColor=#dae8fc;strokeColor=#6c8ebf;fontSize=8;verticalAlign=middle;" vertex="1" parent="yK7P3pugAWHu_ZcFfTPJ-135">
          <mxGeometry x="373.1851851851852" y="-5" width="84.81481481481481" height="27.36842105263158" as="geometry" />
        </mxCell>
        <mxCell id="yK7P3pugAWHu_ZcFfTPJ-141" value="OMS认证服务" style="rounded=0;whiteSpace=wrap;html=1;fillColor=#dae8fc;strokeColor=#6c8ebf;fontSize=8;verticalAlign=middle;" vertex="1" parent="yK7P3pugAWHu_ZcFfTPJ-135">
          <mxGeometry x="186.5925925925926" y="91.63157894736841" width="84.81481481481481" height="27.36842105263158" as="geometry" />
        </mxCell>
        <mxCell id="yK7P3pugAWHu_ZcFfTPJ-142" value="CCC服务" style="rounded=0;whiteSpace=wrap;html=1;fillColor=#dae8fc;strokeColor=#6c8ebf;fontSize=8;verticalAlign=middle;flipH=1;" vertex="1" parent="yK7P3pugAWHu_ZcFfTPJ-135">
          <mxGeometry x="93.2962962962963" y="44.315789473684205" width="84.81481481481481" height="27.36842105263158" as="geometry" />
        </mxCell>
        <mxCell id="yK7P3pugAWHu_ZcFfTPJ-143" value="COT服务" style="rounded=0;whiteSpace=wrap;html=1;fillColor=#dae8fc;strokeColor=#6c8ebf;fontSize=8;verticalAlign=middle;flipH=1;" vertex="1" parent="yK7P3pugAWHu_ZcFfTPJ-135">
          <mxGeometry x="186.5925925925926" y="44.315789473684205" width="84.81481481481481" height="27.36842105263158" as="geometry" />
        </mxCell>
        <mxCell id="yK7P3pugAWHu_ZcFfTPJ-144" value="钥匙服务" style="rounded=0;whiteSpace=wrap;html=1;fillColor=#dae8fc;strokeColor=#6c8ebf;fontSize=8;verticalAlign=middle;flipH=1;" vertex="1" parent="yK7P3pugAWHu_ZcFfTPJ-135">
          <mxGeometry x="93.29518518518523" y="-4.368421052631589" width="84.81481481481481" height="27.36842105263158" as="geometry" />
        </mxCell>
        <mxCell id="yK7P3pugAWHu_ZcFfTPJ-145" value="OMS前端服务" style="rounded=0;whiteSpace=wrap;html=1;fillColor=#dae8fc;strokeColor=#6c8ebf;fontSize=8;verticalAlign=middle;" vertex="1" parent="yK7P3pugAWHu_ZcFfTPJ-135">
          <mxGeometry y="91.63157894736841" width="84.81481481481481" height="27.36842105263158" as="geometry" />
        </mxCell>
        <mxCell id="yK7P3pugAWHu_ZcFfTPJ-146" value="单点登录服务" style="rounded=0;whiteSpace=wrap;html=1;fillColor=#dae8fc;strokeColor=#6c8ebf;fontSize=8;verticalAlign=middle;" vertex="1" parent="yK7P3pugAWHu_ZcFfTPJ-135">
          <mxGeometry x="279.8888888888889" y="91.63157894736841" width="84.81481481481481" height="27.36842105263158" as="geometry" />
        </mxCell>
        <mxCell id="yK7P3pugAWHu_ZcFfTPJ-147" value="OMS系统管理" style="rounded=0;whiteSpace=wrap;html=1;fillColor=#dae8fc;strokeColor=#6c8ebf;fontSize=8;verticalAlign=middle;" vertex="1" parent="yK7P3pugAWHu_ZcFfTPJ-135">
          <mxGeometry x="93.2962962962963" y="91.63157894736841" width="84.81481481481481" height="27.36842105263158" as="geometry" />
        </mxCell>
        <mxCell id="yK7P3pugAWHu_ZcFfTPJ-148" value="PKI代理服务" style="rounded=0;whiteSpace=wrap;html=1;fillColor=#dae8fc;strokeColor=#6c8ebf;fontSize=8;verticalAlign=middle;" vertex="1" parent="yK7P3pugAWHu_ZcFfTPJ-135">
          <mxGeometry x="373.1851851851852" y="44.315789473684205" width="84.81481481481481" height="27.36842105263158" as="geometry" />
        </mxCell>
        <mxCell id="yK7P3pugAWHu_ZcFfTPJ-149" value="trustKey服务" style="rounded=0;whiteSpace=wrap;html=1;fillColor=#dae8fc;strokeColor=#6c8ebf;fontSize=8;verticalAlign=middle;flipH=1;" vertex="1" parent="yK7P3pugAWHu_ZcFfTPJ-135">
          <mxGeometry x="279.8888888888889" y="44.315789473684205" width="84.81481481481481" height="27.36842105263158" as="geometry" />
        </mxCell>
        <mxCell id="yK7P3pugAWHu_ZcFfTPJ-165" value="KTS服务" style="rounded=0;whiteSpace=wrap;html=1;fillColor=#dae8fc;strokeColor=#6c8ebf;fontSize=8;verticalAlign=middle;" vertex="1" parent="yK7P3pugAWHu_ZcFfTPJ-135">
          <mxGeometry x="373.1862962962963" y="90.63" width="84.81481481481481" height="27.36842105263158" as="geometry" />
        </mxCell>
        <mxCell id="yK7P3pugAWHu_ZcFfTPJ-166" value="&lt;font style=&quot;font-size: 8px;&quot;&gt;VPC网络&lt;/font&gt;" style="rounded=0;whiteSpace=wrap;html=1;fillColor=none;strokeColor=none;fontSize=8;" vertex="1" parent="1">
          <mxGeometry x="194" y="230" width="66" height="20" as="geometry" />
        </mxCell>
        <mxCell id="yK7P3pugAWHu_ZcFfTPJ-167" value="&lt;font style=&quot;font-size: 8px;&quot;&gt;&lt;b&gt;&lt;font color=&quot;#ff0000&quot;&gt;12&lt;/font&gt;&lt;/b&gt;、WAF&lt;/font&gt;" style="rounded=0;whiteSpace=wrap;html=1;fillColor=none;strokeColor=none;fontSize=8;" vertex="1" parent="1">
          <mxGeometry x="290" y="253" width="66" height="20" as="geometry" />
        </mxCell>
        <mxCell id="yK7P3pugAWHu_ZcFfTPJ-168" value="" style="group" vertex="1" connectable="0" parent="1">
          <mxGeometry x="250" y="630" width="480" height="71.50000000000003" as="geometry" />
        </mxCell>
        <mxCell id="yK7P3pugAWHu_ZcFfTPJ-169" value="" style="rounded=0;whiteSpace=wrap;html=1;fillColor=#d5e8d4;strokeColor=none;fontSize=8;" vertex="1" parent="yK7P3pugAWHu_ZcFfTPJ-168">
          <mxGeometry y="10" width="480" height="55" as="geometry" />
        </mxCell>
        <mxCell id="yK7P3pugAWHu_ZcFfTPJ-170" value="日志查询服务" style="rounded=0;whiteSpace=wrap;html=1;fillColor=#dae8fc;strokeColor=#6c8ebf;fontSize=8;flipH=0;flipV=1;" vertex="1" parent="yK7P3pugAWHu_ZcFfTPJ-168">
          <mxGeometry x="15" y="30.199999999999996" width="75" height="22" as="geometry" />
        </mxCell>
        <mxCell id="yK7P3pugAWHu_ZcFfTPJ-171" value="&lt;b&gt;&lt;font color=&quot;#ff0000&quot;&gt;7、&lt;/font&gt;&lt;/b&gt;日志空间" style="rounded=0;whiteSpace=wrap;html=1;strokeColor=none;fillColor=none;fontSize=8;" vertex="1" parent="yK7P3pugAWHu_ZcFfTPJ-168">
          <mxGeometry y="6.199999999999999" width="70" height="22" as="geometry" />
        </mxCell>
        <mxCell id="yK7P3pugAWHu_ZcFfTPJ-172" value="链路跟踪" style="rounded=0;whiteSpace=wrap;html=1;fillColor=#dae8fc;strokeColor=#6c8ebf;fontSize=8;flipH=0;flipV=1;" vertex="1" parent="yK7P3pugAWHu_ZcFfTPJ-168">
          <mxGeometry x="112" y="30.199999999999996" width="64" height="22" as="geometry" />
        </mxCell>
        <mxCell id="yK7P3pugAWHu_ZcFfTPJ-173" value="告警服务" style="rounded=0;whiteSpace=wrap;html=1;fillColor=#dae8fc;strokeColor=#6c8ebf;fontSize=8;flipH=0;flipV=1;" vertex="1" parent="yK7P3pugAWHu_ZcFfTPJ-168">
          <mxGeometry x="392" y="30.199999999999996" width="73" height="22" as="geometry" />
        </mxCell>
        <mxCell id="yK7P3pugAWHu_ZcFfTPJ-174" value="埋点解析" style="rounded=0;whiteSpace=wrap;html=1;fillColor=#dae8fc;strokeColor=#6c8ebf;fontSize=8;flipH=0;flipV=1;" vertex="1" parent="yK7P3pugAWHu_ZcFfTPJ-168">
          <mxGeometry x="203" y="30.199999999999996" width="73" height="22" as="geometry" />
        </mxCell>
        <mxCell id="yK7P3pugAWHu_ZcFfTPJ-180" value="监控服务" style="rounded=0;whiteSpace=wrap;html=1;fillColor=#dae8fc;strokeColor=#6c8ebf;fontSize=8;flipH=0;flipV=1;" vertex="1" parent="yK7P3pugAWHu_ZcFfTPJ-168">
          <mxGeometry x="297" y="30.200000000000045" width="73" height="22" as="geometry" />
        </mxCell>
        <mxCell id="yK7P3pugAWHu_ZcFfTPJ-181" value="&lt;b&gt;&lt;font color=&quot;#ff0000&quot;&gt;5、&lt;/font&gt;&lt;/b&gt;COS" style="rounded=0;whiteSpace=wrap;html=1;fillColor=#dae8fc;strokeColor=#6c8ebf;fontSize=8;" vertex="1" parent="1">
          <mxGeometry x="605" y="743" width="55" height="20" as="geometry" />
        </mxCell>
        <mxCell id="yK7P3pugAWHu_ZcFfTPJ-182" value="" style="rounded=0;whiteSpace=wrap;html=1;fillColor=#ffe6cc;strokeColor=none;fontSize=8;" vertex="1" parent="1">
          <mxGeometry x="670" y="718" width="100" height="61" as="geometry" />
        </mxCell>
        <mxCell id="yK7P3pugAWHu_ZcFfTPJ-183" value="&lt;b&gt;&lt;font color=&quot;#ff0000&quot;&gt;4、&lt;/font&gt;&lt;/b&gt;CKafka" style="rounded=0;whiteSpace=wrap;html=1;fillColor=#dae8fc;strokeColor=#6c8ebf;fontSize=8;" vertex="1" parent="1">
          <mxGeometry x="680.02" y="743" width="81" height="20" as="geometry" />
        </mxCell>
        <mxCell id="yK7P3pugAWHu_ZcFfTPJ-184" value="消息队列" style="rounded=0;whiteSpace=wrap;html=1;strokeColor=none;fillColor=none;fontSize=8;" vertex="1" parent="1">
          <mxGeometry x="663" y="718" width="66" height="20" as="geometry" />
        </mxCell>
        <mxCell id="yK7P3pugAWHu_ZcFfTPJ-185" value="" style="endArrow=none;html=1;rounded=0;fontSize=8;" edge="1" parent="1">
          <mxGeometry width="50" height="50" relative="1" as="geometry">
            <mxPoint x="720" y="700" as="sourcePoint" />
            <mxPoint x="720" y="720" as="targetPoint" />
          </mxGeometry>
        </mxCell>
        <mxCell id="yK7P3pugAWHu_ZcFfTPJ-186" value="&lt;b&gt;&lt;font color=&quot;#ff0000&quot;&gt;6、&lt;/font&gt;&lt;/b&gt;公网IP(入网)" style="rounded=0;whiteSpace=wrap;html=1;fillColor=#dae8fc;strokeColor=#6c8ebf;fontSize=8;" vertex="1" parent="1">
          <mxGeometry x="380" y="273" width="90" height="20" as="geometry" />
        </mxCell>
        <mxCell id="yK7P3pugAWHu_ZcFfTPJ-187" value="DNAT" style="rounded=0;whiteSpace=wrap;html=1;fillColor=#dae8fc;strokeColor=none;fontSize=8;" vertex="1" parent="1">
          <mxGeometry x="441" y="318" width="30" height="20" as="geometry" />
        </mxCell>
        <mxCell id="yK7P3pugAWHu_ZcFfTPJ-188" value="SNAT" style="rounded=0;whiteSpace=wrap;html=1;fillColor=#dae8fc;strokeColor=none;fontSize=8;" vertex="1" parent="1">
          <mxGeometry x="501" y="319" width="30" height="20" as="geometry" />
        </mxCell>
        <mxCell id="yK7P3pugAWHu_ZcFfTPJ-189" value="&lt;b&gt;&lt;font color=&quot;#ff0000&quot;&gt;9、&lt;/font&gt;&lt;/b&gt;内网负载均衡" style="rounded=0;whiteSpace=wrap;html=1;fillColor=#dae8fc;strokeColor=#6c8ebf;fontSize=8;" vertex="1" parent="1">
          <mxGeometry x="780" y="531" width="100" height="20" as="geometry" />
        </mxCell>
        <mxCell id="yK7P3pugAWHu_ZcFfTPJ-190" value="" style="endArrow=none;html=1;rounded=0;fontSize=8;entryX=1.005;entryY=0.375;entryDx=0;entryDy=0;exitX=0;exitY=0.5;exitDx=0;exitDy=0;entryPerimeter=0;" edge="1" parent="1" source="yK7P3pugAWHu_ZcFfTPJ-189" target="yK7P3pugAWHu_ZcFfTPJ-111">
          <mxGeometry width="50" height="50" relative="1" as="geometry">
            <mxPoint x="639.04" y="416" as="sourcePoint" />
            <mxPoint x="639.04" y="440" as="targetPoint" />
          </mxGeometry>
        </mxCell>
        <mxCell id="yK7P3pugAWHu_ZcFfTPJ-191" value="外部" style="rounded=0;whiteSpace=wrap;html=1;fillColor=none;strokeColor=none;fontSize=8;" vertex="1" parent="1">
          <mxGeometry x="191" y="120.5" width="66" height="20" as="geometry" />
        </mxCell>
        <mxCell id="yK7P3pugAWHu_ZcFfTPJ-192" value="" style="rounded=0;whiteSpace=wrap;html=1;fillColor=#ffe6cc;strokeColor=none;fontSize=8;" vertex="1" parent="1">
          <mxGeometry x="228" y="140" width="159" height="58" as="geometry" />
        </mxCell>
        <mxCell id="yK7P3pugAWHu_ZcFfTPJ-193" value="DK-SDK" style="rounded=0;whiteSpace=wrap;html=1;fillColor=#dae8fc;strokeColor=#6c8ebf;fontSize=8;" vertex="1" parent="1">
          <mxGeometry x="272" y="168.5" width="70" height="20" as="geometry" />
        </mxCell>
        <mxCell id="yK7P3pugAWHu_ZcFfTPJ-194" value="" style="rounded=0;whiteSpace=wrap;html=1;fillColor=#ffe6cc;strokeColor=none;fontSize=8;" vertex="1" parent="1">
          <mxGeometry x="412" y="140" width="280" height="59.25" as="geometry" />
        </mxCell>
        <mxCell id="yK7P3pugAWHu_ZcFfTPJ-195" value="充电桩" style="rounded=0;whiteSpace=wrap;html=1;fillColor=#f5f5f5;strokeColor=#666666;fontSize=8;fontColor=#333333;shadow=0;sketch=1;" vertex="1" parent="1">
          <mxGeometry x="520" y="168.5" width="70" height="20" as="geometry" />
        </mxCell>
        <mxCell id="yK7P3pugAWHu_ZcFfTPJ-196" value="换电桩" style="rounded=0;whiteSpace=wrap;html=1;fillColor=#eeeeee;strokeColor=#666666;fontSize=8;sketch=1;" vertex="1" parent="1">
          <mxGeometry x="601.5" y="168.5" width="70" height="20" as="geometry" />
        </mxCell>
        <mxCell id="yK7P3pugAWHu_ZcFfTPJ-197" value="外部系统" style="rounded=0;whiteSpace=wrap;html=1;fillColor=none;strokeColor=none;fontSize=8;" vertex="1" parent="1">
          <mxGeometry x="422" y="137.5" width="66" height="20" as="geometry" />
        </mxCell>
        <mxCell id="yK7P3pugAWHu_ZcFfTPJ-198" value="APP" style="rounded=0;whiteSpace=wrap;html=1;fillColor=none;strokeColor=none;fontSize=8;" vertex="1" parent="1">
          <mxGeometry x="215" y="138" width="66" height="20" as="geometry" />
        </mxCell>
        <mxCell id="yK7P3pugAWHu_ZcFfTPJ-199" value="&lt;font style=&quot;font-size: 8px;&quot;&gt;DK-Server&lt;/font&gt;" style="rounded=0;whiteSpace=wrap;html=1;fillColor=none;strokeColor=none;fontSize=8;" vertex="1" parent="1">
          <mxGeometry x="201" y="423" width="66" height="20" as="geometry" />
        </mxCell>
        <mxCell id="yK7P3pugAWHu_ZcFfTPJ-200" value="" style="rounded=0;whiteSpace=wrap;html=1;fillColor=#ffe6cc;strokeColor=none;fontSize=8;" vertex="1" parent="1">
          <mxGeometry x="890" y="520" width="80" height="130" as="geometry" />
        </mxCell>
        <mxCell id="yK7P3pugAWHu_ZcFfTPJ-201" value="TSP" style="rounded=0;whiteSpace=wrap;html=1;fillColor=#dae8fc;strokeColor=#6c8ebf;fontSize=8;" vertex="1" parent="1">
          <mxGeometry x="914.4999999999999" y="531" width="30" height="20" as="geometry" />
        </mxCell>
        <mxCell id="yK7P3pugAWHu_ZcFfTPJ-202" value="AppServer" style="rounded=0;whiteSpace=wrap;html=1;fillColor=#dae8fc;strokeColor=#6c8ebf;fontSize=8;" vertex="1" parent="1">
          <mxGeometry x="900" y="572" width="60" height="20" as="geometry" />
        </mxCell>
        <mxCell id="yK7P3pugAWHu_ZcFfTPJ-203" value="" style="endArrow=none;html=1;rounded=0;entryX=0;entryY=0.5;entryDx=0;entryDy=0;fontSize=8;exitX=0.5;exitY=1;exitDx=0;exitDy=0;" edge="1" parent="1" source="yK7P3pugAWHu_ZcFfTPJ-189" target="yK7P3pugAWHu_ZcFfTPJ-200">
          <mxGeometry width="50" height="50" relative="1" as="geometry">
            <mxPoint x="860" y="540" as="sourcePoint" />
            <mxPoint x="888.5" y="620" as="targetPoint" />
          </mxGeometry>
        </mxCell>
        <mxCell id="yK7P3pugAWHu_ZcFfTPJ-204" value="硬件厂商" style="rounded=0;whiteSpace=wrap;html=1;fillColor=#dae8fc;strokeColor=#6c8ebf;fontSize=8;" vertex="1" parent="1">
          <mxGeometry x="441" y="168.5" width="70" height="20" as="geometry" />
        </mxCell>
        <mxCell id="yK7P3pugAWHu_ZcFfTPJ-205" value="MES" style="rounded=0;whiteSpace=wrap;html=1;fillColor=#dae8fc;strokeColor=#6c8ebf;fontSize=8;" vertex="1" parent="1">
          <mxGeometry x="899.5" y="612" width="60" height="20" as="geometry" />
        </mxCell>
        <mxCell id="yK7P3pugAWHu_ZcFfTPJ-206" value="&lt;b&gt;&lt;font color=&quot;#ff0000&quot;&gt;11、&lt;/font&gt;&lt;/b&gt;专有网络 / VPN" style="rounded=0;whiteSpace=wrap;html=1;fillColor=#dae8fc;strokeColor=#6c8ebf;fontSize=8;" vertex="1" parent="1">
          <mxGeometry x="890" y="439" width="118" height="20" as="geometry" />
        </mxCell>
        <mxCell id="yK7P3pugAWHu_ZcFfTPJ-212" value="手机厂商服务器" style="rounded=0;whiteSpace=wrap;html=1;fillColor=#dae8fc;strokeColor=#6c8ebf;fontSize=8;" vertex="1" parent="1">
          <mxGeometry x="1046" y="441" width="100" height="20" as="geometry" />
        </mxCell>
      </root>
    </mxGraphModel>
  </diagram>
</mxfile>
